<?xml version="1.0" standalone="no"?><!DOCTYPE svg PUBLIC "-//W3C//DTD SVG 1.1//EN" "http://www.w3.org/Graphics/SVG/1.1/DTD/svg11.dtd"><svg t="1649342527819" class="icon" viewBox="0 0 1024 1024" version="1.1" xmlns="http://www.w3.org/2000/svg" p-id="9485" xmlns:xlink="http://www.w3.org/1999/xlink" width="200" height="200"><defs><style type="text/css"></style></defs><path d="M805.78 291.84c-71.615 0-130.883-61.44-130.883-135.68V0h-471.67c-44.451 0-79.024 35.84-79.024 81.92v857.6c0 46.08 34.573 81.92 79.023 81.92h669.23c44.45 0 79.023-35.84 79.023-81.92V291.84h-145.7z m17.286 547.84h-567.98v-56.32h565.51v56.32h2.47z m0-176.64h-567.98v-56.32h565.51v56.32h2.47z m0-176.64h-567.98v-56.32h565.51v56.32h2.47zM726.756 0v156.16c0 46.08 34.573 81.92 79.024 81.92h148.168L726.756 0z" fill="#6AD166" p-id="9486"></path></svg>